# xmcd
#
# Track frame offsets:
#	150
#	14097
#	32150
#	49277
#	66027
#	83170
#	101052
#	122182
#	133457
#	148977
#	163084
#	183960
#
# Disc length: 3567 seconds
#
# Revision: 1
# Processed by: cddbd v1.5.1PL0 Copyright (c) Steve Scherf et al.
# Submitted via: audiograbber 1.83.01
#
DISCID=b80ded0c
DTITLE=HiFi and the Roadburners - Fear City
DYEAR=1900
DGENRE=
TTITLE0=Mary Ann
TTITLE1=Devil in Disguise
TTITLE2=Minister's Daughter
TTITLE3=Dead Bug
TTITLE4=F.T.W.
TTITLE5=Fear City
TTITLE6=Bad Times
TTITLE7=Mexican Whore
TTITLE8=Big Red
TTITLE9=Be Bop Boogie
TTITLE10=Something Bad
TTITLE11=Outlaw Blues
EXTD=
EXTT0=
EXTT1=
EXTT2=
EXTT3=
EXTT4=
EXTT5=
EXTT6=
EXTT7=
EXTT8=
EXTT9=
EXTT10=
EXTT11=
PLAYORDER=
